<mxfile host="app.diagrams.net" modified="2023-09-28T14:52:30.359Z" agent="Mozilla/5.0 (Macintosh; Intel Mac OS X 10_15_7) AppleWebKit/537.36 (KHTML, like Gecko) Chrome/117.0.0.0 Safari/537.36" etag="9vgtgBIek0OqfAY6bVPL" version="21.7.2" type="github">
  <diagram name="Page-1" id="-PrbdQjXji2XNEa-jSd8">
    <mxGraphModel dx="2074" dy="1125" grid="1" gridSize="10" guides="1" tooltips="1" connect="1" arrows="1" fold="1" page="1" pageScale="1" pageWidth="827" pageHeight="1169" background="none" math="0" shadow="0">
      <root>
        <mxCell id="0" />
        <mxCell id="1" parent="0" />
        <mxCell id="VqsckO1X7QWTR3AO_8e5-115" value="" style="rounded=0;whiteSpace=wrap;html=1;" vertex="1" parent="1">
          <mxGeometry x="530" y="520" width="270" height="420" as="geometry" />
        </mxCell>
        <mxCell id="r-W4MLv6wnLr3ksw_QMo-23" value="&lt;b&gt;Index&lt;/b&gt;&lt;br&gt;aggs-datas-neo.inbound-consolidated" style="html=1;verticalLabelPosition=bottom;align=center;labelBackgroundColor=#ffffff;verticalAlign=top;strokeWidth=2;strokeColor=#6c8ebf;shadow=0;dashed=0;shape=mxgraph.ios7.icons.data;fillColor=#dae8fc;" parent="1" vertex="1">
          <mxGeometry x="420" y="840" width="70" height="70" as="geometry" />
        </mxCell>
        <mxCell id="r-W4MLv6wnLr3ksw_QMo-57" value="Inbound Visibility - Consolidated" style="text;html=1;strokeColor=none;fillColor=none;align=center;verticalAlign=middle;whiteSpace=wrap;rounded=0;fontSize=23;fontStyle=5" parent="1" vertex="1">
          <mxGeometry x="185" y="10" width="485" height="20" as="geometry" />
        </mxCell>
        <mxCell id="r-W4MLv6wnLr3ksw_QMo-73" value="Elasticsearch" style="shape=image;verticalLabelPosition=bottom;labelBackgroundColor=default;verticalAlign=top;aspect=fixed;imageAspect=0;image=data:image/svg+xml,PHN2ZyB4bWxucz0iaHR0cDovL3d3dy53My5vcmcvMjAwMC9zdmciIGhlaWdodD0iNDhweCIgd2lkdGg9IjQ4cHgiIHZpZXdCb3g9IjAgMCA0OCA0OCI+PHBhdGggZD0iTTM3LDI0YzAtMy4zMTQtMi42ODYtNi02LTZINS45MThDNS4zMjMsMTkuODk0LDUsMjEuOTA5LDUsMjRzMC4zMjMsNC4xMDYsMC45MTgsNkgzMSBDMzQuMzE0LDMwLDM3LDI3LjMxNCwzNywyNHoiIGZpbGw9IiMyOWI2ZjYiLz48cGF0aCBkPSJNMjUsNDRjNi41MjQsMCwxMi4zMDUtMy4xMzMsMTUuOTU0LTcuOTY4QzM4LjgzNSwzNC4xNTEsMzYuMDU1LDMzLDMzLDMzSDcuMTU3IEMxMC40NTMsMzkuNTIsMTcuMTk2LDQ0LDI1LDQ0eiIgZmlsbD0iIzRkYjZhYyIvPjxwYXRoIGQ9Ik0yNSw0QzE3LjE5NSw0LDEwLjQ1Myw4LjQ4LDcuMTU3LDE1SDMzYzMuMDUxLDAsNS44MjgtMS4xNDgsNy45NDYtMy4wMjQgQzM3LjI5OSw3LjEzOCwzMS41MjUsNCwyNSw0eiIgZmlsbD0iI2ZmY2EyOCIvPjxwYXRoIGQ9Ik0yMi4wNzMsMTVjLTEuNTEzLTMuMzY3LTMuODQ1LTYuMjg4LTYuNzQ3LTguNTAxQzExLjgxNyw4LjQ0Myw4Ljk1NywxMS40MTIsNy4xNDMsMTVIMjIuMDczeiIgZmlsbD0iI2Y5YTgyNSIvPjxwYXRoIGQ9Ik0xNS4zMjYsNDEuNTAxYzIuOTAyLTIuMjEzLDUuMjMzLTUuMTM0LDYuNzQ3LTguNTAxSDcuMTQzIEM4Ljk1NywzNi41ODgsMTEuODE3LDM5LjU1NywxNS4zMjYsNDEuNTAxeiIgZmlsbD0iIzAwOTY4OCIvPjxwYXRoIGQ9Ik01LjkyOCwxOEM1LjMzMiwxOS44OTUsNSwyMS45MDcsNSwyNHMwLjMzMiw0LjEwNSwwLjkyOCw2aDE3LjIzNEMyMy43MDMsMjguMDkyLDI0LDI2LjA4MSwyNCwyNCBzLTAuMjk3LTQuMDkyLTAuODM3LTZINS45Mjh6IiBmaWxsPSIjMjEyMTIxIi8+PC9zdmc+;" parent="1" vertex="1">
          <mxGeometry x="393.74" y="40" width="40" height="40" as="geometry" />
        </mxCell>
        <mxCell id="r-W4MLv6wnLr3ksw_QMo-74" value="Trasnform&lt;br&gt;aggs-datas-neo.inbound-consolidated-transform" style="image;aspect=fixed;perimeter=ellipsePerimeter;html=1;align=center;shadow=0;dashed=0;fontColor=#4277BB;labelBackgroundColor=default;fontSize=12;spacingTop=3;image=img/lib/ibm/infrastructure/transformation_connectivity.svg;" parent="1" vertex="1">
          <mxGeometry x="414" y="525" width="60" height="60" as="geometry" />
        </mxCell>
        <mxCell id="VqsckO1X7QWTR3AO_8e5-39" value="" style="rounded=0;whiteSpace=wrap;html=1;shadow=1;" vertex="1" parent="1">
          <mxGeometry x="14.53" y="106" width="795.47" height="270" as="geometry" />
        </mxCell>
        <mxCell id="r-W4MLv6wnLr3ksw_QMo-6" value="&lt;b&gt;Index&lt;/b&gt;&lt;br&gt;datas-neo.inbound.s4-raw" style="html=1;verticalLabelPosition=bottom;align=center;labelBackgroundColor=#ffffff;verticalAlign=top;strokeWidth=2;strokeColor=#d6b656;shadow=1;dashed=0;shape=mxgraph.ios7.icons.data;fillColor=#fff2cc;" parent="1" vertex="1">
          <mxGeometry x="70" y="116" width="50" height="56" as="geometry" />
        </mxCell>
        <mxCell id="VqsckO1X7QWTR3AO_8e5-4" value="Trasnform&lt;br&gt;datas-neo.inbound.s4-sum-quantity-transform.v1" style="image;aspect=fixed;perimeter=ellipsePerimeter;html=1;align=center;shadow=0;dashed=0;fontColor=#4277BB;labelBackgroundColor=default;fontSize=12;spacingTop=3;image=img/lib/ibm/infrastructure/transformation_connectivity.svg;imageBackground=default;" vertex="1" parent="1">
          <mxGeometry x="180" y="136" width="60" height="60" as="geometry" />
        </mxCell>
        <mxCell id="VqsckO1X7QWTR3AO_8e5-40" style="edgeStyle=orthogonalEdgeStyle;rounded=0;orthogonalLoop=1;jettySize=auto;html=1;" edge="1" parent="1" source="r-W4MLv6wnLr3ksw_QMo-6" target="VqsckO1X7QWTR3AO_8e5-4">
          <mxGeometry relative="1" as="geometry" />
        </mxCell>
        <mxCell id="VqsckO1X7QWTR3AO_8e5-112" style="edgeStyle=orthogonalEdgeStyle;rounded=0;orthogonalLoop=1;jettySize=auto;html=1;entryX=1;entryY=0.5;entryDx=0;entryDy=0;" edge="1" parent="1" target="r-W4MLv6wnLr3ksw_QMo-74">
          <mxGeometry relative="1" as="geometry">
            <mxPoint x="709.94" y="320" as="sourcePoint" />
            <mxPoint x="433.7728157299975" y="752.5835921350013" as="targetPoint" />
          </mxGeometry>
        </mxCell>
        <mxCell id="VqsckO1X7QWTR3AO_8e5-37" value="&lt;b&gt;Index&lt;/b&gt;&lt;br&gt;datas-neo.inbound.s4-sum-quantity" style="html=1;verticalLabelPosition=bottom;align=center;labelBackgroundColor=#ffffff;verticalAlign=top;strokeWidth=2;strokeColor=#d79b00;shadow=1;dashed=0;shape=mxgraph.ios7.icons.data;fillColor=#ffe6cc;" vertex="1" parent="1">
          <mxGeometry x="680" y="276" width="50" height="56" as="geometry" />
        </mxCell>
        <mxCell id="VqsckO1X7QWTR3AO_8e5-76" style="edgeStyle=orthogonalEdgeStyle;rounded=0;orthogonalLoop=1;jettySize=auto;html=1;entryX=0.007;entryY=0.85;entryDx=0;entryDy=0;entryPerimeter=0;" edge="1" parent="1" source="VqsckO1X7QWTR3AO_8e5-4" target="VqsckO1X7QWTR3AO_8e5-18">
          <mxGeometry relative="1" as="geometry" />
        </mxCell>
        <mxCell id="VqsckO1X7QWTR3AO_8e5-78" style="edgeStyle=orthogonalEdgeStyle;rounded=0;orthogonalLoop=1;jettySize=auto;html=1;entryX=0;entryY=0.482;entryDx=0;entryDy=0;entryPerimeter=0;" edge="1" parent="1" source="VqsckO1X7QWTR3AO_8e5-18" target="VqsckO1X7QWTR3AO_8e5-37">
          <mxGeometry relative="1" as="geometry" />
        </mxCell>
        <mxCell id="VqsckO1X7QWTR3AO_8e5-114" style="edgeStyle=orthogonalEdgeStyle;rounded=0;orthogonalLoop=1;jettySize=auto;html=1;entryX=-0.033;entryY=0.617;entryDx=0;entryDy=0;entryPerimeter=0;" edge="1" parent="1" source="VqsckO1X7QWTR3AO_8e5-83" target="r-W4MLv6wnLr3ksw_QMo-74">
          <mxGeometry relative="1" as="geometry">
            <Array as="points">
              <mxPoint x="95" y="550" />
              <mxPoint x="412" y="550" />
            </Array>
          </mxGeometry>
        </mxCell>
        <mxCell id="VqsckO1X7QWTR3AO_8e5-83" value="&lt;b&gt;Index&lt;/b&gt;&lt;br&gt;datas-neo.inbound.vendor-raw" style="html=1;verticalLabelPosition=bottom;align=center;labelBackgroundColor=#ffffff;verticalAlign=top;strokeWidth=2;strokeColor=#d6b656;shadow=1;dashed=0;shape=mxgraph.ios7.icons.data;fillColor=#fff2cc;" vertex="1" parent="1">
          <mxGeometry x="70" y="420" width="50" height="56" as="geometry" />
        </mxCell>
        <mxCell id="VqsckO1X7QWTR3AO_8e5-18" value="INGEST PIPELINE" style="rounded=0;whiteSpace=wrap;html=1;verticalAlign=top;fontStyle=1;fontSize=15;fillColor=#dae8fc;strokeColor=#6c8ebf;glass=0;shadow=1;" vertex="1" parent="1">
          <mxGeometry x="347" y="116" width="343" height="154" as="geometry" />
        </mxCell>
        <mxCell id="VqsckO1X7QWTR3AO_8e5-19" value="neo-inbound-s4-sum-quantity" style="rounded=0;whiteSpace=wrap;html=1;verticalAlign=top;fontStyle=1;fillColor=#d5e8d4;strokeColor=#82b366;glass=0;shadow=1;" vertex="1" parent="1">
          <mxGeometry x="354.5" y="156" width="325.5" height="104" as="geometry" />
        </mxCell>
        <mxCell id="VqsckO1X7QWTR3AO_8e5-20" value="&lt;ol&gt;&lt;li&gt;neo-inbound-s4-sum-quantity-01-map.content&lt;/li&gt;&lt;li&gt;neo-inbound-s4-sum-quantity-04-cleanup&lt;/li&gt;&lt;li&gt;neo-inbound-s4-sum-quantity-05-event.ingested&lt;br&gt;&lt;/li&gt;&lt;/ol&gt;" style="rounded=0;whiteSpace=wrap;html=1;fillColor=#f5f5f5;strokeColor=#666666;shadow=1;align=left;fontColor=#333333;" vertex="1" parent="1">
          <mxGeometry x="361.5" y="186" width="310.5" height="64" as="geometry" />
        </mxCell>
        <mxCell id="VqsckO1X7QWTR3AO_8e5-113" style="edgeStyle=orthogonalEdgeStyle;rounded=0;orthogonalLoop=1;jettySize=auto;html=1;" edge="1" parent="1" source="VqsckO1X7QWTR3AO_8e5-97" target="r-W4MLv6wnLr3ksw_QMo-74">
          <mxGeometry relative="1" as="geometry" />
        </mxCell>
        <mxCell id="VqsckO1X7QWTR3AO_8e5-97" value="&lt;b&gt;Index&lt;/b&gt;&lt;br&gt;datas-neo.inbound.3pl-raw" style="html=1;verticalLabelPosition=bottom;align=center;labelBackgroundColor=#ffffff;verticalAlign=top;strokeWidth=2;strokeColor=#d6b656;shadow=1;dashed=0;shape=mxgraph.ios7.icons.data;fillColor=#fff2cc;" vertex="1" parent="1">
          <mxGeometry x="250" y="430" width="50" height="56" as="geometry" />
        </mxCell>
        <mxCell id="VqsckO1X7QWTR3AO_8e5-116" value="" style="rounded=0;whiteSpace=wrap;html=1;" vertex="1" parent="1">
          <mxGeometry x="84.5" y="990" width="675.5" height="150" as="geometry" />
        </mxCell>
        <mxCell id="VqsckO1X7QWTR3AO_8e5-119" value="" style="shape=image;verticalLabelPosition=bottom;labelBackgroundColor=default;verticalAlign=top;aspect=fixed;imageAspect=0;image=data:image/png,iVBORw0KGgoAAAANSUhEUgAAAE8AAABqCAYAAAD9VQwDAAAKp2lDQ1BJQ0MgUHJvZmlsZQAASImVlwk01Hsbx3///+xjxjbIbuxbZDfIMvZBkZ1UxsxgLGMMg7RJrm50W1QSlWiRFN3KerVJabtCWSp1yRXK7WqRSuX94xj33ve873ve55zn/D7nmef3/J7nd/6/c74DAFmSyecnwJIAJPJSBf4eztTQsHAqbgQQgCziNKDGZKXw6X5+PgCxhfXv9rEHQLPrQ6PZWv/++381KTYnhQUA5IdwFDuFlYjwJcTHWXxBKgCoY0hcMz2VP8utCMsIkAYR7pvlmHken+WoOUaDuZxAfxeEZQDAk5hMQQwAJCoSp6axYpA6JCeETXhsLg9hPsIOiYlJbITPI6yH5CAx0mx9WtRf6sT8rWaUqCaTGSPi+VnmDO/KTeEnMNf/n9fxvy0xQbhwhg7ipFiBp//szMid9cUneYuYF7XSd4G57Ln8OY4VegYtMCvFJXyB2UxXb9HehJU+CxzNdWeI6qQyAheYk+IWsMCCJH/RWdECF/oCMwWL5wrjg0TxWA5DVD8zNjBkgdO4wSsXOCU+wHsxx0UUFwj9Rf1zeB7Oi+e6i2ZPTPnLvFyGaG9qbKCnaHbmYv8cHn2xZkqoqDc2x9VtMSdIlM9PdRadxU/wE+VzEjxE8ZS0ANHeVOSDXNzrJ7rDOKaX3wIDT+AHqMANmAFrwEbIA1ikcjJSZwdxSeKvF3BjYlOpdOSFcagMHst4KdXMxMwcgNn3Ov85vO+be4eQHH4xJhhBPuNOAGDXxdg6LwAavwJAebcY0zoJABmp1jzFEgrS5mNzbwkDiEAC6VABqAJNoAeMkP6sgB1wQjr1Ar4gEISBtYAFYkEiEIB0sBFsBbkgH+wBB0AxKAXHwWlwDlwA9aAZXAe3wD3QAbrBUzAAhsFrMAE+gmkIgnAQGaJACpAapA0ZQmYQDXKA3CAfyB8KgyKhGIgHCaGN0DYoHyqAiqEyqBL6GWqErkN3oE7oMTQIjUHvoC8wCibBMrAKrAMvg2kwHfaGA+E1cAycDGfCOfAuuAguh8/CdfB1+B7cDQ/Ar+FJFECJoeRQ6igjFA3lgvJFhaOiUQLUZlQeqhBVjqpGNaHaUA9RA6hx1Gc0Fk1BU9FGaDu0JzoIzUInozejd6KL0afRdehW9EP0IHoC/R1DxihjDDG2GAYmFBODScfkYgoxpzC1mJuYbsww5iMWi5XD6mKtsZ7YMGwcdgN2J/YItgZ7DduJHcJO4nA4BZwhzh7ni2PiUnG5uEO4s7iruC7cMO4TXgyvhjfDu+PD8Tx8Nr4QfwZ/Bd+FH8FPEyQJ2gRbgi+BTVhP2E04QWgiPCAME6aJUkRdoj0xkBhH3EosIlYTbxL7ie/FxMQ0xGzEVolxxbLEisTOi90WGxT7TJImGZBcSBEkIWkXqYJ0jfSY9J5MJuuQncjh5FTyLnIl+Qb5OfmTOEXcWJwhzhbfIl4iXifeJf5GgiChLUGXWCuRKVEocVHigcS4JEFSR9JFkim5WbJEslGyV3JSiiJlKuUrlSi1U+qM1B2pUWmctI60mzRbOkf6uPQN6SEKiqJJcaGwKNsoJyg3KcMyWBldGYZMnEy+zDmZdpkJWWlZC9lg2QzZEtnLsgNyKDkdOYZcgtxuuQtyPXJflqgsoS/hLNmxpHpJ15IpeSV5J3mOfJ58jXy3/BcFqoKbQrzCXoV6hWeKaEUDxVWK6YpHFW8qjivJKNkpsZTylC4oPVGGlQ2U/ZU3KB9Xvq88qaKq4qHCVzmkckNlXFVO1Uk1TnW/6hXVMTWKmoMaV22/2lW1V1RZKp2aQC2itlIn1JXVPdWF6mXq7erTGroaQRrZGjUazzSJmjTNaM39mi2aE1pqWiu0NmpVaT3RJmjTtGO1D2q3aU/p6OqE6GzXqdcZ1ZXXZehm6lbp9uuR9Rz1kvXK9R7pY/Vp+vH6R/Q7DGADS4NYgxKDB4awoZUh1/CIYedSzFKbpbyl5Ut7jUhGdKM0oyqjQWM5Yx/jbON64zfLtJaFL9u7rG3ZdxNLkwSTEyZPTaVNvUyzTZtM35kZmLHMSswemZPN3c23mDeYv7UwtOBYHLXos6RYrrDcbtli+c3K2kpgVW01Zq1lHWl92LqXJkPzo+2k3bbB2DjbbLFptvlsa2WbanvB9k87I7t4uzN2o8t1l3OWn1g+ZK9hz7Qvsx9woDpEOhxzGHBUd2Q6lju+cNJ0Yjudchqh69Pj6Gfpb5xNnAXOtc5TLrYum1yuuaJcPVzzXNvdpN2C3IrdnrtruMe4V7lPeFh6bPC45onx9Pbc69nLUGGwGJWMCS9rr01erd4k7wDvYu8XPgY+Ap+mFfAKrxX7VvSv1F7JW1nvC3wZvvt8n/np+iX7/bIKu8pvVcmql/6m/hv92wIoAesCzgR8DHQO3B34NEgvSBjUEiwRHBFcGTwV4hpSEDIQuix0U+i9MMUwblhDOC48OPxU+ORqt9UHVg9HWEbkRvSs0V2TsebOWsW1CWsvr5NYx1x3MRITGRJ5JvIr05dZzpyMYkQdjppgubAOsl6zndj72WMce04BZyTaProgejTGPmZfzFisY2xh7DjXhVvMfRvnGVcaNxXvG18RP5MQklCTiE+MTGzkSfPiea1JqkkZSZ18Q34ufyDZNvlA8oTAW3AqBUpZk9KQKoMIo/tCPeEPwsE0h7SStE/pwekXM6QyeBn31xus37F+JNM98+QG9AbWhpaN6hu3bhzcRN9UthnaHLW5ZYvmlpwtw1keWae3ErfGb/012yS7IPvDtpBtTTkqOVk5Qz94/FCVK54ryO3dbre99Ef0j9wf23eY7zi043seO+9uvkl+Yf7Xnaydd38y/anop5ld0bvad1vtProHu4e3p2ev497TBVIFmQVD+1bsq9tP3Z+3/8OBdQfuFFoUlh4kHhQeHCjyKWo4pHVoz6GvxbHF3SXOJTWHlQ/vODx1hH2k66jT0epSldL80i/HuMf6yjzK6sp1yguPY4+nHX95IvhE20naycpTiqfyT32r4FUMnPY/3VppXVl5RvnM7iq4Slg1djbibMc513MN1UbVZTVyNfnnwXnh+Vc/R/7cc8H7QstF2sXqS9qXDtdSavPqoLr1dRP1sfUDDWENnY1ejS1Ndk21vxj/UtGs3lxyWfby7ivEKzlXZq5mXp28xr82fj3m+lDLupanN0JvPGpd1dp+0/vm7Vvut2600duu3ra/3XzH9k7jXdrd+ntW9+ruW96v/dXy19p2q/a6B9YPGjpsOpo6l3de6XLsuv7Q9eGtR4xH97pXdnf2BPX09Ub0DvSx+0YfJzx++yTtyfTTrH5Mf94zyWeFz5Wfl/+m/1vNgNXA5UHXwfsvAl48HWINvf495fevwzkvyS8LR9RGKkfNRpvH3Mc6Xq1+Nfya/3p6PPcPqT8Ov9F7c+lPpz/vT4RODL8VvJ15t/O9wvuKDxYfWib9Jp9/TPw4PZX3SeHT6c+0z21fQr6MTKd/xX0t+qb/rem79/f+mcSZGT5TwJyTAijE4ehoAN5VIDohDNEOHQAQV8/r6TmD5v8DzBH4TzyvuefMCoCKLAACEJ+VT6VZ83KW7ASAH+KBTgA2Nxf5gvad0+mzpiGOlJjVY6B/zfMy8A+b1/B/6fufKxBV/dv6LxnlBAcukQgkAAAAVmVYSWZNTQAqAAAACAABh2kABAAAAAEAAAAaAAAAAAADkoYABwAAABIAAABEoAIABAAAAAEAAABPoAMABAAAAAEAAABqAAAAAEFTQ0lJAAAAU2NyZWVuc2hvdL4VzFIAAAHVaVRYdFhNTDpjb20uYWRvYmUueG1wAAAAAAA8eDp4bXBtZXRhIHhtbG5zOng9ImFkb2JlOm5zOm1ldGEvIiB4OnhtcHRrPSJYTVAgQ29yZSA2LjAuMCI+CiAgIDxyZGY6UkRGIHhtbG5zOnJkZj0iaHR0cDovL3d3dy53My5vcmcvMTk5OS8wMi8yMi1yZGYtc3ludGF4LW5zIyI+CiAgICAgIDxyZGY6RGVzY3JpcHRpb24gcmRmOmFib3V0PSIiCiAgICAgICAgICAgIHhtbG5zOmV4aWY9Imh0dHA6Ly9ucy5hZG9iZS5jb20vZXhpZi8xLjAvIj4KICAgICAgICAgPGV4aWY6UGl4ZWxZRGltZW5zaW9uPjEwNjwvZXhpZjpQaXhlbFlEaW1lbnNpb24+CiAgICAgICAgIDxleGlmOlBpeGVsWERpbWVuc2lvbj43OTwvZXhpZjpQaXhlbFhEaW1lbnNpb24+CiAgICAgICAgIDxleGlmOlVzZXJDb21tZW50PlNjcmVlbnNob3Q8L2V4aWY6VXNlckNvbW1lbnQ+CiAgICAgIDwvcmRmOkRlc2NyaXB0aW9uPgogICA8L3JkZjpSREY+CjwveDp4bXBtZXRhPgpn3MhCAAAOVklEQVR4Ae2cWXMU1xXH/73OSKN9Q2jQhgSSAEnsiMV2jG3WxHY54KqslZdUyEdI8pIP4LwkeXQe4lAJdmJXJSkDNikZFzEYAjZ4QWAKgwRCoH2XRqOZyf/0IJBh0Iynu7XVXNWoZ7r73r731+fcc+65t1sZGBqJIJWSIqAmlSuVySKQgmdDEFLwUvBsELCRNSV5KXg2CNjImpI8G/B0G3mjWRXZWP9sF+V+AXRpHfRq7cMbDSIyGSI/B2vlBkWpnqZC8ZqA6szNtgcvHEHg1BWEb/c5ViE3uFnSRnDaymIYjWVQ0g1HJNAevFAYk5/cROjCDUDXXGm3U4WqlYXQV/mhmKynQ0piD560TDRA1MAhVXAK1oNyCEotzIa5qx5GQ2n0Jkecobe4rS0ZKRlpMJ6thbm5GvBQVhwCJzdnUcNT2JXo26th7qwDMmgoHAS3yOFFoNE4ePevhZLjA2jcnE6LU/JoyLSKInh+sAVqUZYr4Ban5BGcku2D52dPQy8rQMQFiZuS4MUleQLK0OD9+bMwVpfQeQ9PtdOV7eKCpynwvNoEc1s1IhMc9bic7Pt5LlcwoeLFFhCc8Xw9PPsaEQm6D07qtfAlT8CxFcaG5fC+uN5RJ1gAzZQWPjwObvSaEpivrIeSl+64L7d44dHpVWlRje9tgFZa4NiYdSZg048tXMkTcIU5MPc0wFhVQtV1Jsw0HU687wsTHsGJLydjVmNDxf0xa7ymOn984cETcB4PjCaOWZ+qgZLpndV+bvotWFjwCA6axjFrKYwXVkEpyJj1fm7hwlMUaFVFMPevg+bPm1NwAnHhSJ5lIBjUfHED9JVFcw5O4NkaYYh90xXODSgMbfMTkT82UrQrwoPWb7mKA0nxeWG+tI4GonxegJMm2YIn4/DPAl24F2iFManDq+hIN73w6SZyIgbSIjo8hKpxfB4myhA/sk0mGQyjm8+tvg8uuTKSue5MeWzBC0bCeHPwc5zuPg3TMKCoKoMaAowg2SNkmelYqvmwzMhGlZ6LMjUTBTxi8NjUTGVcDAwx6Tvq4Hl5QxSciPU8SbbgSRsMqq1J6TJEddkumcMdi0xilGrbPTGC6+i0HFidx3OMNCzTc7DKU4DVRgFKlQxkEKUuMFnWY1jCDGrWLUPaT7dB9eqIhB47Y04x2oYXq/YKraLAULm1krSZEtM/PoJuDOPSSDsydQ8qPHlo9CxBvV4Iv+oD3V5ozGkhYp+glhcxNvcM1LyM6MR6tLR5898VeE9qnUClcluHRycD+HzyDi6P3kWzmYl6QlxvFmOFloNc0AkuzoPnh9ui0WBZkTAP06zCm95+kU1dQFLMOsYHcXdiCBf0O1htFmBz/kqs3b0V/oZlUBgNnl/K+rAVcwbvYRUkjhmF2DsxjNPaJK4vL8OXOf3YfrcNjflLaXg8CNE4zbc0L+BZUNgnaoYJc1U1BlcU46PONnw11INNxRXYWVaFFTkFloWeT3I4P+ARnOXmVJVBr18BJU2CmkDnyDDeu9mCG4Nd2FVei20lFUinKxSaJ+7K/IDHvk/zF0NvrGWoKfuBdoq1DoVDuNLdSZAjuDXUj/0VtShKz5gXAOd+bEsp0gvzYK5bxQnq/Afgpr5EnR6gZ2wYx75uwZ9bPkHr0EC0n5w6aY62cwuP4NRMendra+nTLZ0xGiwQxycnca6/E4dvXWN/2H/ftZ4jcrzs3METcB4aiDUruOiwkjWJXxXV60UkzYdLg714o/UqWob6rAZEPcfZhxi/xm7ViSs1zepyGOu4gsmM0/UStEJLrGdm07BwmMY6XSa4w61f4SolMLpI0K2KPrncOYEnkmL4l0LbUo+Ih2H0OOtJFN2AkUVw3E6NgDWOqa8O9+GvbddwY3jgyS108cgcwKM/V0ADsZVLv8SycvA/U5IhnZ6VxeWwj89VqAT45VAv/t5+HR1jIzMV48qx2YVH9dMyM2A2EVwJo8FxwIHgtMwsRlS4vo55YyWFAM/3d+Ofd2+ifyIgA75ZS7MH776B8Gxu4DwE1wbHAye+n88HLT3zieCEkgWLQ7dTXR1o7mpHgN9nC+DswBNwug5zfR3jc1zBlMBQX0tLgy7gEkAh0heMhPBuRxsu9HY9DIW5LIPuwyM4a+hFaPq6NYjQysZjp9KIaD5OK6ryeEJsdX2Ui0qnZZBhrn/c/hptI0OcW3Ff/lyHJ00wlpdC38T5B488PDIzDIXzHwJOtt82iQVuGxvE2x03MBoKJSCz3/YK3zzfXXjs13SOWY1N9ZzZpwrGc0k46NcyMqDSp0s2iQU+23sPZ/ixQl3JFpRAPvfgEZxWkAtj4xooHLvGVT+OMCwDwaUU1PMEqh77FJH0IKXuWEcr3ZdRVwEmX8vYdY/upYSJS+LZuBpqaTFhxOl/xJdLT4fmZShKJpJsJpG+trEhNHffsYxTnKsnfTXn4YmB4JjVaFwJlfG5RJ5JUz1pUDlmjRqIpNvyjYwy0Xam5x5u0ni4pb7OwrtvWT21y6GvXsExK1VwZvvAMauH/ZyPAidDL+eSSFt3YAyneu66FvtzFJ41lCovgbauFqAaxrWsNBA6DYnKaUg3kkzKf9bXjVujw65InzPwROLYen1JAcyNtKy5OfHB0YezLKsEBlxM9ybG8MlATzxDn1QNnIHHS6vZWTDWc82cf0lccGJAVB8NRJq76+vkhgZoeVsGe9BDFX4wCZ8Uqscz2YYna04EhNHAaHBV+eNXiLFHrKo1Zo1xzOldYapu++gobowOOu4024dnMtZWWwV9TbX1DH+8fs4aerGfk/HorCReZ2ByAteGBzHOySQn3ZY4Idz4zVPK/dC9DC/J0CveCIIjBwkxSTR4tpKluoTWSpelLzCOYrpEsobQiZT07ZdKhbl8P7yiFGpWYkMvXWJzSYxZ7TZUVPfu+Bjax0ftFvWN/EnDk1IizB2S+Yc4N1KhZbVcEokGz0GSLqKfqnuH8IJx44iJV9AB/Ykunn2iKsiYVZxgjiJkXehcpfFQkNI3grHwJDI10xq22a2LLXiiuialyiPObsypQ0aD0xkN9rGfmy0D8QQiYfZzAxMTGAkGkcWuw4luT7Hz2ktZM3JzoBcjVInYVoxT1XxuQtR2rpP0LBmMZhdzPiSNdYrT0yRUXVvwErrCIj7JlsFYxFwSaloKXkKYYp+UghebS0J7U/ASwhT7pBS82FwS2puClxCm2Cel4MXmktDeFLyEMMU+KQUvNpeE9qbgJYQp9kkpeLG5JLQ3BS8hTLFPSsGLzSWhvSl4CWGKfVIKXmwuCe2dFXjTQ/TRt184EYpMqH2unuQIvGBwEh0dHRgY6Ge4ndFjfnp7e3Hnzh0MDw+j+YMP0NPdDcPQcfHTT3Hp4kU+8OPIpV2FE69w2y0QUP39vfjT66/jzGm+5YKT4F1d93D4L2/g2LGj6Ovrw7v//pcF18ulZ0e57/jxY9Z5GsPhj0KU37JfPlL2VJJ1zXJs6nii+abyu7G1NQE0VaEQX9/R09ONUT7W2d3VhXfefgf9hLZv33dRXLwUBw++Cv+yZdacuEYAIU7/3WptRQ+lMzcvHwWFfG87YQX5YF5fZyf391jrXUpK/MjOybEmqUVyw5y8nqSU9/X1WvsLC5dYN8HK19WJbp4j3YKf+XJycx2b3J5q56NbR+DJ7I/GGTRRUZEqUdfvHziIlTUrMUKgJ068j/yCQpQt81vXb7l8GUePH7cAy9OM23dsx4aNm9BHaM3NzegkwHFOUht8XOoXhw7Bx+cxTp78AF9+8QXKy8staQ5yFmzHU09hy5YmDA4M4D8nTvDGdSPAB1nCvDmHDv3yAfhHG+3Ub9tqKxURAAEuZXifkI4fO47Nmzejob7equMkpemzi5cwNDhANRSBopRSQurX1GP3nr1cDKri6NGjVPVOpPHZi9raGuzh/udfeMG6EdeuXaOqAq2U1PPn/4e6ulXYu3efVfaHJ08SeC+8Xg9qamqwd98+7OfnxPvv4QuC1jlb5mZypnRSGSc8kTIvV0C1t7djZHQEmVxeIUmjoVCmvVlxTUMDmrZt4wugwzQyA3jrzSO41daG2ro6jDKfNHw8ELCMTi9VVHo+MTYCrmnrVqvfu9xyGRfOn7euk8aFlIHxcZxraaHqB6kB7D7YjTzaL1qVcfCfI5In/Uw63wsgEnPgwCu4ePFTnD7zMULyLMS0Tj9abwXZWTkWEFEvMTAq+7ve/n68eeSIJbkGX620vHI5MvhYwZSbI4u0M+UBPm4l35QpGR8L4PDhN2iIjkE3TSyvqkYGF5PLjXE7OSN5nEIWFSksKsRzz+/CjZutloWtrKxE8RIudpyWZOb++vVrFgDJM0BoksIEfZEuzM6dz9HQ7KUEjj0B/kMfUe6LWPqz587h5Zdexm6qumCd4MoAq4+Ydl03vjoCT96/HgxOWI3N4l0/ePAAfvfaa3jryN/wox//xGrMlCQIpJs3vsYf//B75NHSfvTfU5a6NjauxYc0CmfPfmxZ1StXr2BwaPDBu93FQAQFyv0kUj3BfaKy+bSsUo6UffXq1egNech4KovjW+1Xv/7Nb+2UKmopqiWdfXX1ShTQqvp8GaioqCS0APx+P/Lz87CGBiSD+1Va0F2791h+XBv7uW3s+/bu249Cuis1NbVWv9lBa719+w488/R3UFlVhVzCEb+vtKzMsrZyPbluYdES1NXWYhMN1NDQEG7fuo0tTU3YtWcPz6uwyhQVdys5stxCGmJw4aJIg1hX/rQaK2opv2UrkiP+oPRxkqLOrsrjIeuYAJF9JvstlcZFRi1SbrTMEMtn38j9lkoyv5Qp50fP44KjGPkkr5vJEXhuVnA+l+2ItZ3PDXSzbil4Nuim4KXg2SBgI2tK8lLwbBCwkTUleSl4NgjYyJqSPBvw/g8vmqkhOfNMswAAAABJRU5ErkJggg==;" vertex="1" parent="1">
          <mxGeometry x="665.5" y="1010" width="79" height="106" as="geometry" />
        </mxCell>
        <mxCell id="VqsckO1X7QWTR3AO_8e5-122" value="Kibana" style="shape=image;verticalLabelPosition=bottom;labelBackgroundColor=default;verticalAlign=top;aspect=fixed;imageAspect=0;image=data:image/png,iVBORw0KGgoAAAANSUhEUgAAAGQAAABkCAYAAABw4pVUAAAMP2lDQ1BJQ0MgUHJvZmlsZQAASImVVwdYU8kWnluSkEBooUsJvQkiNYCUEFroHcFGSAKEEmMgiNjLooJrFxWwoasiih0QO2JnUex9QURFWRcLNlTepICu+8r35vvmzn//OfOfM+fO3HsHALVTHJEoF1UHIE9YII4LCaCPTUmlk54BEtAGukAdGHC4+SJmTEwEgGWo/Xt5fwsg0va6g1Trn/3/tWjw+PlcAJAYiNN5+dw8iA8BgFdxReICAIhS3nxqgUiKYQVaYhggxIukOFOOq6Q4XY73yWwS4lgQtwCgpMLhiDMBUL0KeXohNxNqqPZB7CTkCYQAqNEh9s3Lm8yDOA1iG2gjgliqz0j/QSfzb5rpw5ocTuYwls9FVpQCBfmiXM60/zMd/7vk5UqGfFjBqpIlDo2Tzhnm7U7O5HApVoG4V5geFQ2xJsQfBTyZPcQoJUsSmii3Rw25+SyYM6ADsROPExgOsSHEwcLcqAgFn54hCGZDDFcIWiQoYCdArAfxIn5+ULzCZrN4cpzCF1qfIWYxFfwFjljmV+rrkSQnkanQf5PFZyv0MdXirIRkiCkQWxQKkqIgVoXYMT8nPlxhM6Y4ixU1ZCOWxEnjt4A4ji8MCZDrY4UZ4uA4hX1pXv7QfLHNWQJ2lAIfKMhKCJXnB2vhcmTxw7lgV/lCZuKQDj9/bMTQXHj8wCD53LHnfGFivELno6ggIE4+FqeIcmMU9rgZPzdEyptB7JpfGK8YiycVwAUp18czRAUxCfI48eJsTliMPB58OYgALBAI6EACazqYDLKBoK23oRfeyXuCAQeIQSbgAwcFMzQiWdYjhNd4UAz+hIgP8ofHBch6+aAQ8l+HWfnVAWTIegtlI3LAU4jzQDjIhfcS2SjhsLck8AQygn9458DKhfHmwirt//f8EPudYUImQsFIhjzS1YYsiUHEQGIoMZhoixvgvrg3HgGv/rA64wzcc2ge3+0JTwnthMeEm4QOwt1Jgnnin6KMBB1QP1iRi/Qfc4FbQU03PAD3gepQGdfBDYAD7gr9MHE/6NkNsixF3NKs0H/S/tsMfngaCjuyExkl65L9yTY/j1S1U3UbVpHm+sf8yGNNH843a7jnZ/+sH7LPg234z5bYIuwgdh47jV3EjmENgI6dxBqxVuy4FA+vriey1TXkLU4WTw7UEfzD39CTlWYy36nWqcfpi7yvgF8kfUcD1mTRNLEgM6uAzoRfBD6dLeQ6jqQ7Ozm7ACD9vshfX29jZd8NRKf1Ozf/DwB8Tg4ODh79zoWdBGC/B9z+R75zNgz46VAG4MIRrkRcKOdw6YUA3xJqcKfpA2NgDmzgfJyBO/AG/iAIhIFokABSwEQYfRZc52IwFcwAc0EJKAPLwRpQATaBrWAn2AMOgAZwDJwG58BlcBXcBPfh6ukGL0EfeA8GEAQhIVSEhugjJoglYo84IwzEFwlCIpA4JAVJQzIRISJBZiDzkTJkJVKBbEFqkP3IEeQ0chFpR+4inUgP8gb5jGKoCqqFGqFW6CiUgTLRcDQBnYBmolPQYnQBuhRdh1aju9F69DR6Gb2JdqAv0X4MYMqYDmaKOWAMjIVFY6lYBibGZmGlWDlWjdVhTfA5X8c6sF7sE07EaTgdd4ArOBRPxLn4FHwWvgSvwHfi9XgLfh3vxPvwbwQqwZBgT/AisAljCZmEqYQSQjlhO+Ew4SzcS92E90QiUYdoTfSAezGFmE2cTlxC3EDcSzxFbCd2EftJJJI+yZ7kQ4omcUgFpBLSetJu0knSNVI36aOSspKJkrNSsFKqklBpnlK50i6lE0rXlJ4pDZDVyZZkL3I0mUeeRl5G3kZuIl8hd5MHKBoUa4oPJYGSTZlLWUepo5ylPKC8VVZWNlP2VI5VFijPUV6nvE/5gnKn8icVTRU7FZbKeBWJylKVHSqnVO6qvKVSqVZUf2oqtYC6lFpDPUN9RP2oSlN1VGWr8lRnq1aq1qteU32lRlazVGOqTVQrVitXO6h2Ra1Xnaxupc5S56jPUq9UP6J+W71fg6YxWiNaI09jicYujYsazzVJmlaaQZo8zQWaWzXPaHbRMJo5jUXj0ubTttHO0rq1iFrWWmytbK0yrT1abVp92prartpJ2kXaldrHtTt0MB0rHbZOrs4ynQM6t3Q+6xrpMnX5uot163Sv6X7QG6Hnr8fXK9Xbq3dT77M+XT9IP0d/hX6D/kMD3MDOINZgqsFGg7MGvSO0RniP4I4oHXFgxD1D1NDOMM5wuuFWw1bDfiNjoxAjkdF6ozNGvcY6xv7G2carjU8Y95jQTHxNBCarTU6avKBr05n0XPo6egu9z9TQNNRUYrrFtM10wMzaLNFsntles4fmFHOGeYb5avNm8z4LE4tIixkWtRb3LMmWDMssy7WW5y0/WFlbJVsttGqwem6tZ822LrautX5gQ7Xxs5liU21zw5Zoy7DNsd1ge9UOtXOzy7KrtLtij9q72wvsN9i3jySM9BwpHFk98raDigPTodCh1qHTUccxwnGeY4Pjq1EWo1JHrRh1ftQ3JzenXKdtTvdHa44OGz1vdNPoN852zlznSucbLlSXYJfZLo0ur13tXfmuG13vuNHcIt0WujW7fXX3cBe717n3eFh4pHlUedxmaDFiGEsYFzwJngGesz2PeX7ycvcq8Drg9Ze3g3eO9y7v52Osx/DHbBvT5WPmw/HZ4tPhS/dN893s2+Fn6sfxq/Z77G/uz/Pf7v+MacvMZu5mvgpwChAHHA74wPJizWSdCsQCQwJLA9uCNIMSgyqCHgWbBWcG1wb3hbiFTA85FUoIDQ9dEXqbbcTmsmvYfWEeYTPDWsJVwuPDK8IfR9hFiCOaItHIsMhVkQ+iLKOEUQ3RIJodvSr6YYx1zJSYo7HE2JjYytincaPjZsSdj6fFT4rfFf8+ISBhWcL9RJtESWJzklrS+KSapA/JgckrkzvGjho7c+zlFIMUQUpjKik1KXV7av+4oHFrxnWPdxtfMv7WBOsJRRMuTjSYmDvx+CS1SZxJB9MIaclpu9K+cKI51Zz+dHZ6VXofl8Vdy33J8+et5vXwffgr+c8yfDJWZjzP9MlcldmT5ZdVntUrYAkqBK+zQ7M3ZX/Iic7ZkTOYm5y7N08pLy3viFBTmCNsmWw8uWhyu8heVCLqmOI1Zc2UPnG4eHs+kj8hv7FAC/7It0psJL9IOgt9CysLP05NmnqwSKNIWNQ6zW7a4mnPioOLf5uOT+dOb55hOmPujM6ZzJlbZiGz0mc1zzafvWB295yQOTvnUubmzP19ntO8lfPezU+e37TAaMGcBV2/hPxSW6JaIi65vdB74aZF+CLBorbFLovXL/5Wyiu9VOZUVl72ZQl3yaVfR/+67tfBpRlL25a5L9u4nLhcuPzWCr8VO1dqrCxe2bUqclX9avrq0tXv1kxac7HctXzTWspaydqOdRHrGtdbrF++/ktFVsXNyoDKvVWGVYurPmzgbbi20X9j3SajTWWbPm8WbL6zJWRLfbVVdflW4tbCrU+3JW07/xvjt5rtBtvLtn/dIdzRsTNuZ0uNR03NLsNdy2rRWkltz+7xu6/uCdzTWOdQt2Wvzt6yfWCfZN+L/Wn7bx0IP9B8kHGw7pDloarDtMOl9Uj9tPq+hqyGjsaUxvYjYUeam7ybDh91PLrjmOmxyuPax5edoJxYcGLwZPHJ/lOiU72nM093NU9qvn9m7JkbLbEtbWfDz144F3zuzHnm+ZMXfC4cu+h18cglxqWGy+6X61vdWg//7vb74Tb3tvorHlcar3pebWof037imt+109cDr5+7wb5x+WbUzfZbibfu3B5/u+MO787zu7l3X98rvDdwf84DwoPSh+oPyx8ZPqr+w/aPvR3uHcc7AztbH8c/vt/F7Xr5JP/Jl+4FT6lPy5+ZPKt57vz8WE9wz9UX4150vxS9HOgt+VPjz6pXNq8O/eX/V2vf2L7u1+LXg2+WvNV/u+Od67vm/pj+R+/z3g98KP2o/3HnJ8an85+TPz8bmPqF9GXdV9uvTd/Cvz0YzBscFHHEHNmvAAYrmpEBwJsdAFBTAKDB8xllnPz8JyuI/MwqQ+A/YfkZUVbcAaiD/++xvfDv5jYA+7bB4xfUVxsPQAwVgARPgLq4DNehs5rsXCktRHgO2Bz/NT0vHfybIj9z/hD3zy2QqrqCn9t/ASI2fGrRGcLaAAAAOGVYSWZNTQAqAAAACAABh2kABAAAAAEAAAAaAAAAAAACoAIABAAAAAEAAABkoAMABAAAAAEAAABkAAAAAAxz/HsAAAgGSURBVHgB7V1rbBRFHP/P3vXuetjrtde7PgBLS8OjRSSUWtQPQhS0SCs0USx+MfERjYnRL34Tz5ggicYYRCImokQ0SqlKkFYatShRPyiiH8APWB5RU0AefdCWXu9unD3c6/Y6dzt3t7s3284m2539P3Zmfr/bnV9n51oAsQkEBAICAYGAQEAgIBAQCAgEBAICAYGAQEAgwA8CSO+m/LvmhQopZH9J7+vyfj0MEM5zOV4sPBy8kk1b7dkk03KlsLMIo8iTNN+0tmF4NlsyZHx0J2Rag56sczi6u+S7bW8lc6djF4SkgxYlljzzjxYHXE9TXBmZpIyyRFIMAQz4TB44WlF7MKQXJIKQDJHEGA9KyN7sORK8lOElqGmCECosqY0YQwQktNnX88qJ1JHpe8UYkj5mQMaN50t6th7KIFUzRRCiCVFCgI6KKuHKsVNBCA2VJDa9FRWtGjGG0FCh2IxQVJRqQBBCQyXBZpSiSqgmdioIoaGishmpqFTVxItiDIlDQS8YqahoNQpCaKgoNoMVlVKN+igIUaOhKpuhqFTVxYtiDIlDMVEwS1FN1DhREoRMYBErmamoEqqOnQpCVKiYrahUVceLYgyJQwGGzlGpqklZFIQo8ORAUSlVq4+CEIJGrhSVmgilPOPHkFwqKoUE9XFGE5JrRaUmQinPWEJ4UFQKCerjjB1DzJ6jUoOeqjwzCeFEUdGImXGE8KSoaITMqDGEN0VFI0T3O+SQd6j0LzwK/TAery8/gsCN7OCIYghgJ5RITqgZsYM3Yt7nIaaoJLKOqkffdVTxTupU0J2QH9yjdd0/djM1z+Z0QkFRMfhu8sJcdxEsRAWweqQA5ofymPJZg3hVVLT2604IrZJktsjYGPSf7yN3Ux/0kqAjZN9FdpfXC7P9FbAsvxSaon64dchGrJlvvCoqWo9ySgitQbLten8/9Mo7nIQOcj6rtBRqS+fBBlQOawbcgMhHnnnjWFHR+sAlIYkNHb5wAX6Wd+LYGghAfcUCeHysHBaTcSjVxruiorU9dY9oGTm2DV+8CN+T/ShCUFZdA22ehbDpqgekhLtGVlQOcOq6Mt2Mrpsnc3TuDVFN0Nd7Ct44/iXcM/oNbPdfhRC5JeSNxzmqGy3T/mlZQtRdGyKPsw9/+QrWjn4LOwIDOGK3PWLEynR1nUaVpwUhCjjyWPPFHIRqNhW1V+99Z4tit9JxWhFS0LgCTi64Ga6Fx12nB/tf9r33Zl/N3p0rBSE5QCB/fhWcW90IoWg0XvvlsetlZ4aGfpq95+3OVcGgJQTMtLhDHCXFcLn1PhiIhONkKIUIGfz/GR5qOj7Hc2nRx+/epdh5PVqeEMnlhPG2jXABJu4MGtgDoVDhnwP9PZUf7NhB8/NiszQhSJLA1dYKp11sT6MwjqJzI9eeCby//UT9wV1uXkhQt8PShHgeaII//IXq/jCVL46O1J7qG+6r2rNzKVOCiUGWJaSgsT6mqKIJv6GzYjcYDnnAJh1dd2jfMtYcM+IsScgNRbVykqJKF6xilwtqi3weCaGels6OO9PNNyrecoTIiupKEkXFCpLbngcN/nLyVXNEFskhL4Zod3Nn+1rWfCPjLEWIoqjOayiqVIDZkQQNgXJw2NTvWJAbAzrY0tXemirXDJ9lCJEVVf7D7IqKBp4897jcXwoeh2OKm/gcOAqftnR1tExxmmiwDCGyojoZSF9RqbGsLSqBUvcstWlyGSE7EQmf5HJMsQQhMUW1sBIyVVQy6nMLPFBd6J1MAOWM3Cn5UYgeaD68fxHFbbiJe0LiiioSyRgMWVEtLfYz55OB3ofD0EkkcRlzkk6BXBOit6JKBzMiwKpsYDvw4L59UwecdC6UZiy3hMQU1eaNoL+iSgMhhG+7PkvalkZG1qFcEhJXVE62OSoaCqkUFS0+uQ0/19y5f0Nyv74eLgkxRVGx4ojIwwvQ7g1dn89jTckmjjtCzFRU7MDhojBEPgoGg4bjZXgF7J0mejP21o/MUZmoqFjbhzDccayx7inW+EzjuCEkl4qKGbwoerWl+0AFc3wGgVwQwoWiYgEPgScyPv46S2imMTknhC9FpQ2jhKBtfdf+ddqRmUXknBCuFBUjhmQS8jWjBvicEsKnotJmhdwltb821j2kHZl+RM4I4VlRscCIMdpixF2SE0Isoai0WVl8rHHJJu2w9CJMJ8QyiooFxyjeQiYf1a8eWbJSxphKiNUUVUrkZCdCi0YLpHs149IIMJUQKyoqLSwRjj6hFZOO3zRCrKqoNMHEaL2ev72bQoisqM6uup3LOSpNwLUCyHt4HA49qhXG6jecEEVRDUYn/pAAa+OUOHkd1Yr/11EpNs6Oj+klgQ0lRE9F5Zy0joozOgBVH29Y0qBHqwwjZNopKg20owjdrxHC5DaMEF0UVbHGOiqmLpoTRL75u16PmgwhRDdF5dFeR6UHCHpcAwFe1tTZMSfba+lOyKW6yt6zq7N76+dz5cNSH/s6qmxB0CWfvHvPQ5D1tLzuhPxeWZw3SPmuH2unZUVV7y8j/2lGXjdirS0C+O5sW6w7Idk0SFmZzreiSt5D8uc9ViT3snm4IUS/dVRsHTckCkPVxq8/82VzbW4IqbWQokoKOBlHImOwPKmfwcEFIbGV6RZSVKlxze6xlflazSStQhI673O6/k7inmLOk2xjt3hLfiNz2am/aD4lk08DRnCNz5aJVgkEBAICAYGAQEAgIBAQCAgEBAICAToC/wHozUyrrmNiOAAAAABJRU5ErkJggg==;" vertex="1" parent="1">
          <mxGeometry x="360" y="1030" width="70" height="70" as="geometry" />
        </mxCell>
      </root>
    </mxGraphModel>
  </diagram>
</mxfile>
